<?xml version="1.0" encoding="UTF-8"?>
<svg id="Layer_1" data-name="Layer 1" xmlns="http://www.w3.org/2000/svg" viewBox="0 0 30.99 30.99">
  <defs>
    <style>
      .cls-1 {
        fill: #b2ceeb;
      }

      .cls-1, .cls-2 {
        stroke-width: 0px;
      }

      .cls-2 {
        fill: #031742;
      }
    </style>
  </defs>
  <path class="cls-2" d="m3.18,18.95s-5.82-8.18,3.47-9.77c.33-.06.8-.29.88-.62.36-1.6,1.66-6.31,6.87-6.38,4.9-.07,6.3,3.26,6.97,4.61.15.31.47.75.82.72,1.74-.16,6.76-.39,7.58,4.67.98,6.07-4.19,7.26-4.88,7.61-.15.08-.18.52.14.67s6.5-1.57,5.37-8.39c-.92-5.51-6-5.51-7.58-5.3-.25.03-.75-.17-.83-.4-.47-1.27-2.34-5.07-7.69-4.93s-7.21,4.9-7.45,6.47c-.04.28-.26.5-.54.55-2.06.38-9.31,2.37-3.8,10.87.41.63.92-.01.69-.39Z"/>
  <path class="cls-2" d="m23.35,11.67c.34,0,.6.11.78.33s.24.47.17.77l-2.19,10.31c-.51,2.41-1.64,4.25-3.39,5.52-1.75,1.27-3.88,1.9-6.39,1.9s-4.37-.63-5.57-1.9c-1.2-1.27-1.54-3.11-1.03-5.52l2.19-10.31c.06-.29.24-.55.52-.77.29-.22.6-.33.94-.33s.6.11.78.33.24.47.17.77l-2.19,10.31c-.37,1.75-.15,3.09.68,4s2.14,1.37,3.93,1.37,3.34-.46,4.56-1.37c1.21-.91,2.01-2.25,2.38-4l2.19-10.31c.06-.29.23-.55.5-.77.27-.22.59-.33.96-.33Z"/>
  <path class="cls-1" d="m21.66,8.93c2.39-.19,8.61,1.12,6.64,6.27-.36.94-1.1,2.22-1.94,2.48-.25.08-.77-.02-.3-.41.33-.27.88-.75,1.43-2.08.48-1.14.72-2.21-.19-3.64-.7-1.11-2.47-1.99-5.35-2.11-1.23-.05-.49-.49-.29-.5Z"/>
  <path class="cls-1" d="m9.18,9.44c.47-2.35,3.45-7.97,7.85-4.67.8.6,1.83,1.67,1.85,2.55,0,.26-.23.74-.48.18-.17-.39-.48-1.05-1.61-1.95-.97-.77-1.93-1.3-3.55-.82-1.26.37-2.59,1.82-3.5,4.57-.38,1.17-.6.34-.56.14Z"/>
</svg>