<?xml version="1.0" encoding="UTF-8"?>
<svg id="Layer_1" data-name="Layer 1" xmlns="http://www.w3.org/2000/svg" viewBox="0 0 30.99 22.52">
  <defs>
    <style>
      .cls-1 {
        fill: #b2ceeb;
      }

      .cls-1, .cls-2 {
        stroke-width: 0px;
      }

      .cls-2 {
        fill: #031742;
      }
    </style>
  </defs>
  <path class="cls-2" d="m3.17,17.91s-5.82-8.18,3.47-9.77c.33-.06.8-.29.88-.62.36-1.6,1.66-6.31,6.87-6.38,4.9-.07,6.3,3.26,6.97,4.61.15.31.47.75.82.72,1.74-.16,6.76-.39,7.58,4.67.98,6.07-4.19,7.26-4.88,7.61-.15.08-.18.52.14.67s6.5-1.57,5.37-8.39c-.92-5.51-6-5.51-7.58-5.3-.25.03-.75-.17-.83-.4-.47-1.27-2.34-5.07-7.69-4.93s-7.21,4.9-7.45,6.47c-.04.28-.26.5-.54.55-2.06.38-9.31,2.37-3.8,10.87.41.63.92-.01.69-.39Z"/>
  <g>
    <path class="cls-2" d="m9.39,16.2c.1,0,.18.03.24.1s.07.14.05.23l-.66,3.12c-.16.73-.5,1.29-1.03,1.67-.53.38-1.17.58-1.93.58s-1.32-.19-1.68-.58c-.36-.38-.47-.94-.31-1.67l.66-3.12c.02-.09.07-.17.16-.23.09-.07.18-.1.29-.1s.18.03.24.1.07.14.05.23l-.66,3.12c-.11.53-.04.93.2,1.21s.65.41,1.19.41,1.01-.14,1.38-.41c.37-.28.61-.68.72-1.21l.66-3.12c.02-.09.07-.17.15-.23.08-.07.18-.1.29-.1Z"/>
    <path class="cls-2" d="m10.49,21.48c-.02.09-.07.17-.16.23-.09.07-.18.1-.27.1-.1,0-.18-.03-.24-.1-.05-.07-.07-.14-.05-.23l1.6-7.52c.02-.09.07-.17.16-.23.09-.07.18-.1.27-.1.1,0,.18.03.24.1.05.07.07.14.05.23l-1.6,7.52Z"/>
    <path class="cls-2" d="m17.8,16.16c.1,0,.18.03.24.1s.07.15.05.24l-1.06,4.98c-.02.09-.07.17-.16.23s-.18.1-.27.1c-.11,0-.19-.03-.24-.1s-.07-.14-.05-.23l.28-1.32.22-.08c-.04.2-.15.41-.32.62-.17.22-.38.42-.64.6-.26.18-.54.33-.86.44-.32.11-.64.17-.98.17-.54,0-1-.13-1.37-.39s-.63-.61-.78-1.06c-.15-.45-.16-.95-.04-1.51s.35-1.08.7-1.52c.34-.44.75-.78,1.23-1.03.48-.25.98-.38,1.51-.38.34,0,.65.06.93.17.28.11.5.26.69.45.18.19.31.41.39.66.08.25.09.5.03.77l-.22-.17.3-1.4c.02-.1.07-.18.15-.24s.17-.1.28-.1Zm-3.59,5.14c.42,0,.82-.1,1.19-.3.37-.2.69-.48.95-.84.26-.36.44-.76.54-1.2s.08-.82-.03-1.17c-.11-.35-.31-.63-.6-.83-.29-.2-.64-.3-1.06-.3s-.81.1-1.18.29c-.37.2-.69.47-.95.81-.26.35-.44.75-.54,1.19s-.09.84.03,1.2c.11.36.31.64.59.84s.64.3,1.06.3Z"/>
    <path class="cls-2" d="m22.15,16.03c.53,0,.93.1,1.2.29.27.2.45.46.51.8.07.33.06.71-.03,1.11l-.69,3.25c-.02.09-.07.17-.16.23-.09.07-.18.1-.27.1-.11,0-.2-.03-.25-.1-.05-.07-.07-.14-.05-.23l.68-3.22c.06-.29.07-.56.02-.81-.05-.24-.18-.44-.38-.58-.2-.14-.49-.22-.88-.22-.34,0-.69.07-1.02.22-.34.14-.63.34-.87.58s-.4.51-.46.81l-.68,3.22c-.02.09-.07.17-.16.23-.09.07-.18.1-.27.1-.11,0-.2-.03-.25-.1-.05-.07-.07-.14-.05-.23l1.05-4.95c.02-.09.07-.17.16-.23s.18-.1.28-.1.18.03.24.1c.05.07.07.14.05.23l-.2.93-.36.4c.07-.24.2-.46.39-.68.19-.22.43-.41.69-.59.27-.17.56-.31.86-.41.3-.1.6-.15.89-.15Z"/>
  </g>
  <path class="cls-1" d="m21.65,7.89c2.39-.19,8.61,1.12,6.64,6.27-.36.94-1.1,2.22-1.94,2.48-.25.08-.77-.02-.3-.41.33-.27.88-.75,1.43-2.08.48-1.14.72-2.21-.19-3.64-.7-1.11-2.47-1.99-5.35-2.11-1.23-.05-.49-.49-.29-.5Z"/>
  <path class="cls-1" d="m9.17,8.4c.47-2.35,3.45-7.97,7.85-4.67.8.6,1.83,1.67,1.85,2.55,0,.26-.23.74-.48.18-.17-.39-.48-1.05-1.61-1.95-.97-.77-1.93-1.3-3.55-.82-1.26.37-2.59,1.82-3.5,4.57-.38,1.17-.6.34-.56.14Z"/>
</svg>