<?xml version="1.0" encoding="utf-8"?>
<!-- Generator: Adobe Illustrator 28.1.0, SVG Export Plug-In . SVG Version: 6.00 Build 0)  -->
<svg version="1.1" id="Layer_1" xmlns="http://www.w3.org/2000/svg" xmlns:xlink="http://www.w3.org/1999/xlink" x="0px" y="0px"
	 viewBox="0 0 1772.7 477.2" style="enable-background:new 0 0 1772.7 477.2;" xml:space="preserve">
<style type="text/css">
	.st0{enable-background:new    ;}
	.st1{fill:#FFFFFF;}
</style>
<g class="st0">
	<path class="st1" d="M288.9,283.9H139l-16.3,37.3c-7.8,18.2-11.6,33.3-11.6,45.1c0,10.1,2.3,18.8,6.8,26.1
		c4.6,7.3,11.4,13.3,20.4,18c9,4.8,20.9,8.6,35.7,11.5v9H22.8v-8.7c18.2-6.2,33.9-17.1,47-32.6c13.1-15.5,26.9-39.7,41.5-72.5
		L240,26h7.6l140,314.7c0.4,0.2,0.7,0.7,1,1.6c0.3,0.9,0.7,1.8,1.2,2.8c0.5,1,1,2,1.6,3.2l12.8,26.5c7,14.2,14.9,24.8,23.9,32
		c8.9,7.2,20.1,12.2,33.5,15.1v9H275.8v-9c15.7-1.2,27-3,33.8-5.5c14-5.2,21-14.4,21-27.4c0-6.4-3.1-16.9-9.3-31.4L288.9,283.9z
		 M117.4,416.1c-6.6-8-11.3-15.1-14-21.4c-2.7-6.3-4.1-13.1-4.1-20.5c0-3.3,0.1-5.9,0.3-7.9c-6,11.6-11.9,21-17.8,28.1
		c-5.8,7.1-13.7,14.3-23.6,21.7H117.4z M283.4,271.7l-70.2-158.1l-69,158.1H283.4z M219.3,101.1l112.1,252.4l2.9,6.4
		c6,13,9,22.5,9,28.5c0,8.3-4.8,17.6-14.3,27.7h76.9c-8.7-8.2-16.3-17.5-22.7-28.1c-6.4-10.6-13.9-25.3-22.4-44.1L235.9,63
		L219.3,101.1z"/>
	<path class="st1" d="M672.7,222.5v119.6c0,16.7,1,29.1,3.1,37.3c2,8.2,6,15.4,11.8,21.8c10.3,10.7,25.6,17.6,46,20.7v9H548.4v-9
		c21-3.5,36.2-11.5,45.7-24.2c7.4-9.3,11.1-27.8,11.1-55.6V122.4c0-17.7-1-30.5-2.9-38.4c-1.9-8-5.5-14.7-10.8-20.4
		c-9.3-10.3-23.7-17.3-43.1-21v-9c2.7,0.2,5.1,0.3,7.3,0.3l25.6,1.5c10.3,0.6,22.2,0.9,35.8,0.9c21.5,0,41-0.9,58.5-2.6l40.8-3.5
		c12.8-1.2,25.4-1.7,37.8-1.7c22.9,0,43.4,2.3,61.4,7c18,4.7,33.3,11.4,45.7,20.1c12.4,8.7,22,19.5,28.8,32.2
		c6.8,12.7,10.2,26.9,10.2,42.6c0,26.2-9,46.6-26.9,61.3c-18,14.7-44.5,23.2-79.6,25.8c21.7,8.5,40.1,20.2,55.2,35.1
		c15,14.8,32.9,39.1,53.7,72.6c23.5,37.7,42,63.9,55.6,78.6c13.6,14.8,28.6,25.2,45.1,31.4v8.2c-21.2-0.4-39.2-2.3-54-5.8
		c-14.8-3.5-29.6-9.7-44.4-18.6c-18.4-11.4-35.8-26.9-52.1-46.3c-16.3-19.4-30.6-41.6-42.8-66.7l-15.4-32.3
		c-7.4-15.1-13.9-26.2-19.5-33c-5.6-6.9-12.3-11.6-20.1-14.1c-7.8-2.5-18.3-3.8-31.7-3.8H672.7z M589.1,416.1h85l-11.4-8.4
		c-6.6-4.8-10.8-8.7-12.7-11.6c-1.8-2.9-2.8-7.3-2.8-13.1c0-3.1-0.1-5.2-0.1-6.3c-0.1-1.1-0.1-2.2-0.1-3.3v-4.9V96.2v-4.9
		c0-1.2,0-2.3,0.1-3.5c0.1-1.2,0.1-3.2,0.1-6.1c0-5.4,0.8-9.6,2.5-12.5c1.6-2.9,5.3-6.5,10.9-10.8l2-1.5l16.3-12.5l-10.5,0.6
		c-17.7,1.2-33.6,1.7-47.7,1.7c-8.7,0-20.7-0.3-35.8-0.9l15.4,11.1c6.4,4.3,10.6,8,12.5,11.2c1.9,3.2,2.9,7.7,2.9,13.5
		c0.2,3.3,0.3,6.5,0.3,9.6v4.9v272.2v4.9c0,3.1-0.1,6.3-0.3,9.6c0,6-0.9,10.4-2.6,13.2c-1.7,2.8-6,6.7-12.8,11.5L589.1,416.1z
		 M672.7,210.9h52.1c30.1,0,51.7-3.4,64.9-10.2c11.8-6,21.1-15.4,27.8-28.1c6.7-12.7,10-27.3,10-43.8c0-17.1-3.9-32.4-11.8-46
		c-7.9-13.6-18.8-24.1-32.9-31.6C768.8,43.7,752.7,40,734.7,40c-26.8,0-44.8,8.3-54.1,25c-5.2,9.5-7.9,24.5-7.9,44.8V210.9z
		 M969.9,431.2c-10.3-5.6-18.6-10.8-25-15.4c-6.4-4.7-13.9-11.2-22.4-19.5c-10.1-10.9-18-20.3-23.7-28.2c-5.7-8-15.2-22.8-28.4-44.5
		c-12.4-20.8-23.6-37.6-33.6-50.4c-10-12.8-20-23.1-30.1-30.9c-10.1-7.8-21.3-14.2-33.5-19.2c7.8,8,14.2,15.8,19.2,23.6
		c2.7,4.3,7.6,13.3,14.6,27.1c2.1,4.1,4.2,8.1,6.3,11.9c2,3.9,4,8,6,12.2c20.8,40.6,43.1,71.4,67,92.4
		C909.9,411.4,937.9,425,969.9,431.2z M786.2,212c13-2.9,24.9-7.1,35.7-12.5c10.8-5.4,19.7-11.6,26.6-18.6c7-7,12.4-14.9,16.2-23.9
		c3.8-8.9,5.7-18.2,5.7-27.9c0-21.2-7.6-39.6-22.7-55.3c-15.1-15.7-35.1-25.8-60-30.3c11.1,6,20.4,13.2,27.9,21.5
		c7.6,8.3,13.3,17.8,17.2,28.4c3.9,10.6,5.8,22,5.8,34.2c0,21.2-4.2,38.5-12.5,52C817.7,193.1,804.4,203.9,786.2,212z"/>
	<path class="st1" d="M1433.7,37.9l34.1,103.9h-9.9c-9.5-18.4-19.5-34.3-29.8-47.5c-10.4-13.2-21.3-23.9-32.6-32.2
		c-11.4-8.2-23.4-14.3-36.2-18.2c-12.8-3.9-27.3-5.8-43.4-5.8c-22.9,0-44.2,4.4-64,13.1s-37,21.1-51.5,37
		c-14.6,15.9-25.9,34.7-33.9,56.5c-8.1,21.7-12.1,45.1-12.1,70.2c0,37.8,7.5,72.3,22.4,103.5c14.9,31.2,35.5,55.6,61.6,73.4
		c26.1,17.8,55.1,26.6,86.9,26.6c21.9,0,42.5-4.3,61.6-12.8c19.1-8.5,36.1-20.9,51.1-37c14.9-16.1,27.9-36.4,39-60.8h11.9
		c-16.3,43.1-40.9,75.7-73.7,98c-32.8,22.2-72.9,33.3-120.2,33.3c-55.3,0-101.1-14.9-137.4-44.8c-15.5-13-28.6-27.8-39.2-44.2
		c-10.6-16.5-18.7-34.6-24.3-54.3c-5.6-19.7-8.4-39.9-8.4-60.7c0-38.6,9.8-73.9,29.3-106c19.5-32,46.4-57.2,80.6-75.5
		c34.3-18.3,72.1-27.5,113.7-27.5c17.5,0,40.5,2.5,69,7.6c19.8,3.7,34.2,5.5,43.1,5.5C1425.1,39.1,1429.3,38.7,1433.7,37.9z
		 M1283.8,429.2c-24.6-6.8-47-16.5-67-29.1c-20-12.6-36.7-27.7-50.1-45.1c-13.4-17.5-23.5-37.3-30.4-59.5
		c-6.9-22.2-10.3-46.4-10.3-72.6c0-19.4,1.7-36.9,5.2-52.4c3.5-15.5,9.2-30.3,17-44.4c7.9-14.1,17.8-27.1,29.8-39.2
		c12-12,26.7-23.9,44-35.5c-20.4,9.1-38.3,19.9-53.9,32.5c-15.5,12.5-28.6,26.6-39.3,42.2c-10.7,15.6-18.7,32.7-24.2,51.2
		c-5.4,18.5-8.2,37.9-8.2,58.1c0,21.7,3.1,42.5,9.3,62.3c6.2,19.8,15,37.9,26.5,54.4c11.4,16.5,25.3,30.5,41.6,41.9
		c16.3,11.3,33.1,19.7,50.5,25.2C1241.9,424.7,1261.7,428,1283.8,429.2z"/>
	<path class="st1" d="M1577.9,431v-9c21-3.5,36.2-11.5,45.7-24.2c7.4-9.3,11.1-27.8,11.1-55.6V122.4c0-17.7-1-30.5-2.9-38.4
		c-1.9-8-5.5-14.7-10.8-20.4c-9.7-10.9-24.1-17.9-43.1-21v-9h181.4v9c-21,3.5-36.3,11.5-46,24.2c-3.9,5-6.7,11.8-8.4,20.2
		c-1.7,8.4-2.6,20.2-2.6,35.4v219.8c0,16.5,1,29,3.1,37.4c2,8.4,5.7,15.6,10.9,21.4c9.7,10.9,24.1,17.9,43.1,21v9H1577.9z
		 M1618.7,416.1h85l-11.4-8.4c-6.6-4.8-10.8-8.7-12.7-11.6c-1.8-2.9-2.8-7.3-2.8-13.1c0-3.1,0-5.2-0.1-6.3c-0.1-1.1-0.1-2.2-0.1-3.3
		v-4.9V96.2v-4.9c0-1.2,0-2.3,0.1-3.5c0.1-1.2,0.1-3.2,0.1-6.1c0-5.8,0.9-10.2,2.8-13.1c1.8-2.9,6.1-6.8,12.7-11.6l16.6-12.2h-95.5
		l16.6,12.2c6.8,4.9,11.1,8.6,12.8,11.4c1.7,2.7,2.6,7.2,2.6,13.4c0.2,3.3,0.3,6.5,0.3,9.6v4.9v272.2v4.9c0,3.1-0.1,6.3-0.3,9.6
		c0,6-0.9,10.4-2.6,13.2c-1.7,2.8-6,6.7-12.8,11.5L1618.7,416.1z"/>
</g>
</svg>
